<?xml version="1.0" encoding="iso-8859-1"?>
<!-- Uploaded to: SVG Repo, www.svgrepo.com, Generator: SVG Repo Mixer Tools -->
<svg fill="#000000" height="800px" width="800px" version="1.1" id="Layer_1" xmlns="http://www.w3.org/2000/svg" xmlns:xlink="http://www.w3.org/1999/xlink" 
	 viewBox="0 0 512.004 512.004" xml:space="preserve">
<g>
	<g>
		<path d="M504.396,141.431H173.45H7.604c-4.2,0-7.604,3.405-7.604,7.604c0,8.871,1.484,17.501,4.355,25.797
			c0.087,0.302,0.188,0.599,0.31,0.885c8.248,22.977,27.26,43.321,55.54,58.864c38.699,21.268,92.742,32.838,156.607,33.575
			l-54.217,59.898c-1.265,1.398-1.966,3.217-1.966,5.103v29.815c0,0.292,0.02,0.578,0.052,0.861
			c0.009,0.075,0.023,0.149,0.034,0.224c0.03,0.211,0.067,0.421,0.115,0.626c0.018,0.08,0.041,0.159,0.062,0.239
			c0.054,0.202,0.115,0.399,0.183,0.594c0.026,0.073,0.052,0.147,0.08,0.219c0.081,0.208,0.172,0.411,0.271,0.609
			c0.026,0.053,0.049,0.106,0.076,0.159c0.262,0.498,0.577,0.962,0.938,1.387c0.055,0.065,0.114,0.126,0.171,0.188
			c0.132,0.145,0.268,0.285,0.41,0.419c0.069,0.065,0.139,0.129,0.211,0.192c0.154,0.135,0.313,0.262,0.479,0.384
			c0.045,0.032,0.083,0.071,0.128,0.102c0.015,0.01,0.032,0.017,0.048,0.028c0.287,0.201,0.59,0.38,0.904,0.54
			c0.054,0.027,0.109,0.053,0.163,0.079c0.63,0.302,1.305,0.519,2.017,0.639c0.073,0.012,0.146,0.023,0.219,0.033
			c0.343,0.048,0.69,0.08,1.046,0.08h331.243c0.02,0,0.039-0.003,0.059-0.003c0.078,0,0.155-0.009,0.233-0.012
			c0.21-0.008,0.419-0.021,0.623-0.046c0.087-0.01,0.172-0.026,0.259-0.04c0.201-0.031,0.398-0.069,0.593-0.116
			c0.082-0.019,0.163-0.041,0.244-0.063c0.206-0.057,0.408-0.122,0.606-0.195c0.067-0.024,0.134-0.047,0.201-0.073
			c0.249-0.099,0.493-0.21,0.728-0.335c0.014-0.007,0.028-0.013,0.043-0.02c0.255-0.137,0.499-0.288,0.735-0.452
			c0.014-0.01,0.03-0.017,0.045-0.027c0.043-0.03,0.08-0.067,0.123-0.097c0.17-0.126,0.337-0.255,0.496-0.394
			c0.072-0.063,0.143-0.128,0.212-0.193c0.14-0.132,0.275-0.27,0.405-0.412c0.061-0.066,0.123-0.131,0.18-0.199
			c0.162-0.191,0.315-0.388,0.459-0.594c0.014-0.02,0.031-0.04,0.046-0.061c0.159-0.234,0.304-0.479,0.437-0.731
			c0.026-0.05,0.048-0.1,0.073-0.151c0.1-0.202,0.194-0.408,0.277-0.619c0.028-0.073,0.054-0.146,0.08-0.22
			c0.069-0.195,0.131-0.392,0.185-0.594c0.021-0.081,0.044-0.161,0.063-0.242c0.048-0.206,0.084-0.415,0.115-0.626
			c0.011-0.076,0.026-0.15,0.034-0.227c0.032-0.284,0.053-0.572,0.053-0.864v-29.815c0-1.886-0.701-3.705-1.966-5.103
			l-55.315-61.112l60.382-70.731c1.175-1.377,1.821-3.127,1.821-4.938v-42.24C512,144.835,508.596,141.431,504.396,141.431z
			 M15.668,156.639h150.178v8.485H17.312C16.573,162.328,16.017,159.5,15.668,156.639z M67.529,221.252
			c-20.637-11.341-35.593-25.344-44.105-40.92h142.422v10.943c0,1.595,0.501,3.149,1.433,4.443l41.079,57.057
			C150.788,251.184,102.323,240.374,67.529,221.252z M212.812,355.368l123.465-43.381l119.85,43.381H212.812z M496.792,188.47
			l-62.901,73.682c-2.482,2.908-2.42,7.206,0.146,10.04l57.835,63.895v16.045l-152.968-55.369c-1.649-0.597-3.454-0.606-5.109-0.023
			l-157.958,55.501v-16.154l57.835-63.895c2.406-2.658,2.629-6.636,0.533-9.547l-53.151-73.824v-8.491h315.738V188.47z
			 M496.792,165.124H181.054v-8.485h315.738V165.124z"/>
	</g>
</g>
</svg>